<svg xmlns="http://www.w3.org/2000/svg" width="100" height="100" viewBox="0 0 100 100" role="img" aria-label="wellformed">
  <rect width="100" height="100" rx="23" fill="#17181B"/>
  <path d="M34 22C25 22 20 27 20 36V42C20 47 17 50 12 50C17 50 20 53 20 58V64C20 73 25 78 34 78" fill="none" stroke="#76CE54" stroke-width="9" stroke-linecap="round" stroke-linejoin="round"/>
  <path d="M66 22C75 22 80 27 80 36V42C80 47 83 50 88 50C83 50 80 53 80 58V64C80 73 75 78 66 78" fill="none" stroke="#76CE54" stroke-width="9" stroke-linecap="round" stroke-linejoin="round"/>
  <path d="M36 39L42 67L50 48L58 67L64 39" fill="none" stroke="#FFFFFF" stroke-width="8" stroke-linecap="round" stroke-linejoin="round"/>
</svg>
