<svg xmlns="http://www.w3.org/2000/svg" width="100" height="100" viewBox="0 0 100 100" role="img" aria-label="wellformed">
  <rect x="1" y="1" width="98" height="98" rx="23" fill="#FBFBF8" stroke="#E5E5DC" stroke-width="2"></rect>
  <path fill="#76CE54" d="M31.5 78.2L28.08 78.2Q24.66 78.2 22.11 76.97Q19.56 75.74 18.21 73.43Q16.86 71.12 17.1 67.94L17.1 67.94L17.7 58.4Q17.82 55.64 16.68 54.29Q15.54 52.94 12.18 52.94L12.18 52.94L5.34 52.94L5.34 47.06L12.18 47.06Q15.54 47.06 16.68 45.74Q17.82 44.42 17.7 41.6L17.7 41.6L17.1 32Q16.92 28.82 18.24 26.51Q19.56 24.2 22.08 23Q24.6 21.8 28.08 21.8L28.08 21.8L31.5 21.8L31.5 27.68L28.62 27.68Q26.16 27.68 24.78 28.82Q23.4 29.96 23.52 32.36L23.52 32.36L24.12 41.96Q24.36 45.68 22.14 47.9L22.14 47.9Q20.52 49.52 17.82 50L17.82 50Q20.46 50.42 22.14 52.04L22.14 52.04Q24.36 54.32 24.12 58.04L24.12 58.04L23.52 67.64Q23.46 69.92 24.81 71.12Q26.16 72.32 28.62 72.32L28.62 72.32L31.5 72.32L31.5 78.2Z"></path>
  <path fill="#76CE54" d="M71.92 78.2L68.5 78.2L68.5 72.32L71.38 72.32Q73.84 72.32 75.22 71.12Q76.6 69.92 76.48 67.64L76.48 67.64L75.88 58.04Q75.64 54.32 77.92 52.04L77.92 52.04Q79.54 50.42 82.18 50L82.18 50Q79.48 49.52 77.86 47.9L77.86 47.9Q75.64 45.68 75.88 41.96L75.88 41.96L76.48 32.36Q76.6 29.96 75.25 28.82Q73.9 27.68 71.38 27.68L71.38 27.68L68.5 27.68L68.5 21.8L71.92 21.8Q75.4 21.8 77.92 23Q80.44 24.2 81.79 26.51Q83.14 28.82 82.9 32L82.9 32L82.3 41.6Q82.18 44.42 83.35 45.74Q84.52 47.06 87.82 47.06L87.82 47.06L94.66 47.06L94.66 52.94L87.82 52.94Q84.52 52.94 83.35 54.29Q82.18 55.64 82.3 58.4L82.3 58.4L82.9 67.94Q83.14 71.12 81.79 73.43Q80.44 75.74 77.92 76.97Q75.4 78.2 71.92 78.2L71.92 78.2Z"></path>
  <path fill="#17181B" d="M46.788 60.912L37.592 60.912L34.512 39.088L40.012 39.088L41.948 57.172L42.74 57.172L45.556 39.088L54.444 39.088L57.26 57.172L58.052 57.172L59.988 39.088L65.488 39.088L62.408 60.912L53.212 60.912L50.396 42.828L49.604 42.828L46.788 60.912Z"></path>
</svg>
